<?xml version="1.0" encoding="UTF-8" standalone="no"?>
<!DOCTYPE svg PUBLIC "-//W3C//DTD SVG 1.1//EN" "http://www.w3.org/Graphics/SVG/1.1/DTD/svg11.dtd">
<svg width="100%" height="100%" viewBox="0 0 512 512" version="1.1" xmlns="http://www.w3.org/2000/svg" xmlns:xlink="http://www.w3.org/1999/xlink" xml:space="preserve" xmlns:serif="http://www.serif.com/" style="fill-rule:evenodd;clip-rule:evenodd;stroke-linejoin:round;stroke-miterlimit:2;">
    <g transform="matrix(32.0023,0,0,32.0023,-0.0363318,-0.0183261)">
        <path d="M8,1C8.444,1 8.853,1.234 9.078,1.619L15.828,13.119C16.056,13.506 16.056,13.984 15.834,14.372C15.613,14.759 15.197,15 14.75,15L1.25,15C0.803,15 0.387,14.759 0.166,14.372C-0.056,13.984 -0.053,13.503 0.172,13.119L6.922,1.619C7.147,1.234 7.556,1 8,1ZM8,5C7.584,5 7.25,5.334 7.25,5.75L7.25,9.25C7.25,9.666 7.584,10 8,10C8.416,10 8.75,9.666 8.75,9.25L8.75,5.75C8.75,5.334 8.416,5 8,5ZM9,12C9,11.451 8.549,11 8,11C7.451,11 7,11.451 7,12C7,12.549 7.451,13 8,13C8.549,13 9,12.549 9,12Z" style="fill:white;fill-rule:nonzero;"/>
    </g>
</svg>
