<?xml version="1.0" encoding="UTF-8" standalone="no"?>
<!DOCTYPE svg PUBLIC "-//W3C//DTD SVG 1.1//EN" "http://www.w3.org/Graphics/SVG/1.1/DTD/svg11.dtd">
<svg width="100%" height="100%" viewBox="0 0 512 410" version="1.1" xmlns="http://www.w3.org/2000/svg" xmlns:xlink="http://www.w3.org/1999/xlink" xml:space="preserve" xmlns:serif="http://www.serif.com/" style="fill-rule:evenodd;clip-rule:evenodd;stroke-linejoin:round;stroke-miterlimit:2;">
    <g transform="matrix(25.602,0,0,25.602,-0.0200016,-0.0160013)">
        <path d="M12.275,0.038C11.744,-0.116 11.191,0.194 11.038,0.725L7.037,14.725C6.884,15.256 7.194,15.809 7.725,15.963C8.256,16.116 8.809,15.806 8.963,15.275L12.963,1.275C13.116,0.744 12.806,0.191 12.275,0.038ZM14.794,3.791C14.403,4.181 14.403,4.816 14.794,5.206L17.584,8L14.791,10.794C14.4,11.184 14.4,11.819 14.791,12.209C15.181,12.6 15.816,12.6 16.206,12.209L19.706,8.709C20.097,8.319 20.097,7.684 19.706,7.294L16.206,3.794C15.816,3.403 15.181,3.403 14.791,3.794L14.794,3.791ZM5.209,3.791C4.819,3.4 4.184,3.4 3.794,3.791L0.294,7.291C-0.097,7.681 -0.097,8.316 0.294,8.706L3.794,12.206C4.184,12.597 4.819,12.597 5.209,12.206C5.6,11.816 5.6,11.181 5.209,10.791L2.416,8L5.209,5.206C5.6,4.816 5.6,4.181 5.209,3.791Z" style="fill:white;fill-rule:nonzero;"/>
    </g>
</svg>
