<?xml version="1.0" encoding="UTF-8" standalone="no"?>
<!DOCTYPE svg PUBLIC "-//W3C//DTD SVG 1.1//EN" "http://www.w3.org/Graphics/SVG/1.1/DTD/svg11.dtd">
<svg width="100%" height="100%" viewBox="0 0 1024 1024" version="1.1" xmlns="http://www.w3.org/2000/svg" xmlns:xlink="http://www.w3.org/1999/xlink" xml:space="preserve" xmlns:serif="http://www.serif.com/" style="fill-rule:evenodd;clip-rule:evenodd;stroke-linejoin:round;stroke-miterlimit:2;">
    <path d="M654.177,470.888C638.248,480.092 617.843,474.631 608.639,458.701C599.436,442.772 604.897,422.367 620.826,413.164L862.91,273.299C873.223,267.341 885.931,267.338 896.247,273.291C906.563,279.245 912.918,290.25 912.919,302.16L912.938,724.898C912.938,736.808 906.584,747.814 896.269,753.768L531.712,964.211C521.411,970.158 508.721,970.165 498.413,964.229L129.46,751.761C119.129,745.811 112.762,734.797 112.762,722.874L112.762,443.766C112.762,425.369 127.698,410.433 146.095,410.433C164.492,410.433 179.428,425.369 179.428,443.766L179.428,703.605L515.028,896.866C515.028,896.866 846.27,705.654 846.27,705.654L846.255,359.915L654.177,470.888ZM773.271,202.527C789.201,211.731 794.661,232.136 785.457,248.065C776.254,263.995 755.849,269.455 739.919,260.252L511.034,128.007L212.696,300.756L529.535,483.63C539.85,489.584 546.205,500.59 546.205,512.5L546.205,795.515C546.205,813.912 531.269,828.849 512.872,828.849C494.475,828.849 479.538,813.912 479.538,795.515L479.538,531.748L129.432,329.672C119.124,323.722 112.77,312.727 112.762,300.825C112.753,288.923 119.092,277.92 129.392,271.956L494.313,60.653C504.635,54.676 517.364,54.67 527.692,60.637L773.271,202.527Z"/>
	<style>
        path { fill: #fff; }
    </style>
</svg>
