<?xml version="1.0" encoding="UTF-8" standalone="no"?>
<!DOCTYPE svg PUBLIC "-//W3C//DTD SVG 1.1//EN" "http://www.w3.org/Graphics/SVG/1.1/DTD/svg11.dtd">
<svg width="100%" height="100%" viewBox="0 0 512 512" version="1.1" xmlns="http://www.w3.org/2000/svg" xmlns:xlink="http://www.w3.org/1999/xlink" xml:space="preserve" xmlns:serif="http://www.serif.com/" style="fill-rule:evenodd;clip-rule:evenodd;stroke-linejoin:round;stroke-miterlimit:2;">
    <g transform="matrix(32,0,0,32,2.84217e-14,0)">
        <path d="M2,1C0.897,1 0,1.897 0,3L0,5C0,6.103 0.897,7 2,7L14,7C15.103,7 16,6.103 16,5L16,3C16,1.897 15.103,1 14,1L2,1ZM10.75,3.25C11.161,3.25 11.5,3.589 11.5,4C11.5,4.411 11.161,4.75 10.75,4.75C10.339,4.75 10,4.411 10,4C10,3.589 10.339,3.25 10.75,3.25ZM12.25,4C12.25,3.589 12.589,3.25 13,3.25C13.411,3.25 13.75,3.589 13.75,4C13.75,4.411 13.411,4.75 13,4.75C12.589,4.75 12.25,4.411 12.25,4ZM2,9C0.897,9 0,9.897 0,11L0,13C0,14.103 0.897,15 2,15L14,15C15.103,15 16,14.103 16,13L16,11C16,9.897 15.103,9 14,9L2,9ZM10.75,11.25C11.161,11.25 11.5,11.589 11.5,12C11.5,12.411 11.161,12.75 10.75,12.75C10.339,12.75 10,12.411 10,12C10,11.589 10.339,11.25 10.75,11.25ZM12.5,12C12.5,11.589 12.839,11.25 13.25,11.25C13.661,11.25 14,11.589 14,12C14,12.411 13.661,12.75 13.25,12.75C12.839,12.75 12.5,12.411 12.5,12Z" style="fill:white;fill-rule:nonzero;"/>
    </g>
</svg>
