<?xml version="1.0" encoding="UTF-8" standalone="no"?>
<!DOCTYPE svg PUBLIC "-//W3C//DTD SVG 1.1//EN" "http://www.w3.org/Graphics/SVG/1.1/DTD/svg11.dtd">
<svg width="100%" height="100%" viewBox="0 0 512 410" version="1.1" xmlns="http://www.w3.org/2000/svg" xmlns:xlink="http://www.w3.org/1999/xlink" xml:space="preserve" xmlns:serif="http://www.serif.com/" style="fill-rule:evenodd;clip-rule:evenodd;stroke-linejoin:round;stroke-miterlimit:2;">
    <g transform="matrix(25.6,0,0,25.6,0,0)">
        <path d="M0,4C0,2.897 0.897,2 2,2L18,2C19.103,2 20,2.897 20,4L20,12C20,13.103 19.103,14 18,14L2,14C0.897,14 0,13.103 0,12L0,4ZM10,4L10,12L18,12L18,4L10,4ZM5.572,5.497C5.472,5.272 5.247,5.125 5,5.125C4.753,5.125 4.528,5.272 4.428,5.497L2.428,9.997C2.287,10.313 2.431,10.681 2.747,10.822C3.063,10.962 3.431,10.819 3.572,10.503L3.85,9.875L6.15,9.875L6.428,10.503C6.569,10.819 6.938,10.959 7.253,10.822C7.569,10.684 7.709,10.312 7.572,9.997L5.572,5.497ZM5,7.287L5.594,8.625L4.406,8.625L5,7.287ZM14,5.125C14.344,5.125 14.625,5.406 14.625,5.75L14.625,5.875L16.5,5.875C16.844,5.875 17.125,6.156 17.125,6.5C17.125,6.844 16.844,7.125 16.5,7.125L16.438,7.125L16.388,7.266C16.109,8.028 15.688,8.722 15.15,9.309C15.178,9.328 15.206,9.344 15.234,9.359L15.825,9.713C16.122,9.891 16.216,10.275 16.041,10.569C15.866,10.862 15.478,10.959 15.184,10.784L14.594,10.431C14.453,10.347 14.319,10.259 14.184,10.166C13.853,10.4 13.5,10.603 13.122,10.772L13.009,10.822C12.694,10.962 12.325,10.819 12.184,10.503C12.044,10.188 12.188,9.819 12.503,9.678L12.616,9.628C12.816,9.538 13.009,9.437 13.194,9.322L12.813,8.941C12.569,8.697 12.569,8.3 12.813,8.056C13.056,7.812 13.453,7.812 13.697,8.056L14.169,8.528C14.556,8.119 14.872,7.644 15.1,7.122L11.75,7.122C11.406,7.122 11.125,6.841 11.125,6.497C11.125,6.153 11.406,5.872 11.75,5.872L13.375,5.872L13.375,5.747C13.375,5.403 13.656,5.122 14,5.122L14,5.125Z" style="fill:white;fill-rule:nonzero;"/>
    </g>
</svg>
